<svg width="180" height="180" viewBox="0 0 180 180" fill="none" xmlns="http://www.w3.org/2000/svg">
<path d="M11.25 37.5H168.75V142.5H11.25V37.5ZM90 63.75C96.9619 63.75 103.639 66.5156 108.562 71.4384C113.484 76.3613 116.25 83.0381 116.25 90C116.25 96.9619 113.484 103.639 108.562 108.562C103.639 113.484 96.9619 116.25 90 116.25C83.0381 116.25 76.3613 113.484 71.4384 108.562C66.5156 103.639 63.75 96.9619 63.75 90C63.75 83.0381 66.5156 76.3613 71.4384 71.4384C76.3613 66.5156 83.0381 63.75 90 63.75ZM46.25 55C46.25 59.6413 44.4063 64.0925 41.1244 67.3744C37.8425 70.6562 33.3913 72.5 28.75 72.5V107.5C33.3913 107.5 37.8425 109.344 41.1244 112.626C44.4063 115.908 46.25 120.359 46.25 125H133.75C133.75 120.359 135.594 115.908 138.876 112.626C142.158 109.344 146.609 107.5 151.25 107.5V72.5C146.609 72.5 142.158 70.6562 138.876 67.3744C135.594 64.0925 133.75 59.6413 133.75 55H46.25Z" fill="#278664"/>
</svg>
